<svg width="56" height="42" viewBox="0 0 56 42" fill="none" xmlns="http://www.w3.org/2000/svg">
<path d="M47.55 4.92309C42.7734 1.07934 35.2172 0.427777 34.8938 0.404339C34.3922 0.362152 33.9141 0.643402 33.7078 1.10747C33.6891 1.13559 33.525 1.51528 33.3422 2.1059C36.5016 2.64028 40.3828 3.71371 43.8938 5.8934C44.4563 6.24028 44.6297 6.9809 44.2828 7.5434C44.0531 7.91371 43.6641 8.11528 43.2609 8.11528C43.0453 8.11528 42.825 8.05434 42.6281 7.93246C36.5906 4.18715 29.0531 3.99965 27.6 3.99965C26.1469 3.99965 18.6047 4.18715 12.5719 7.93246C12.0094 8.28403 11.2688 8.11059 10.9219 7.54809C10.5703 6.9809 10.7438 6.24496 11.3063 5.8934C14.8172 3.7184 18.6984 2.64028 21.8578 2.11059C21.675 1.51528 21.5109 1.14028 21.4969 1.10747C21.2859 0.643402 20.8125 0.352777 20.3063 0.404339C19.9828 0.427777 12.4266 1.07934 7.58438 4.97465C5.05781 7.31372 0 20.9825 0 32.7997C0 33.0106 0.05625 33.2122 0.159376 33.395C3.64688 39.5262 13.1672 41.1293 15.3375 41.1997C15.3469 41.1997 15.3609 41.1997 15.375 41.1997C15.7594 41.1997 16.1203 41.0168 16.3453 40.7075L18.5391 37.6887C12.6187 36.1606 9.59531 33.5637 9.42188 33.409C8.925 32.9731 8.87813 32.2137 9.31875 31.7168C9.75469 31.22 10.5141 31.1731 11.0109 31.609C11.0813 31.6747 16.65 36.3997 27.6 36.3997C38.5688 36.3997 44.1375 31.6559 44.1938 31.609C44.6906 31.1778 45.4453 31.22 45.8859 31.7215C46.3219 32.2184 46.275 32.9731 45.7781 33.409C45.6047 33.5637 42.5813 36.1606 36.6609 37.6887L38.8547 40.7075C39.0797 41.0168 39.4406 41.1997 39.825 41.1997C39.8391 41.1997 39.8531 41.1997 39.8625 41.1997C42.0328 41.1293 51.5531 39.5262 55.0406 33.395C55.1438 33.2122 55.2 33.0106 55.2 32.7997C55.2 20.9825 50.1422 7.31372 47.55 4.92309ZM19.8 27.9997C17.4797 27.9997 15.6 25.8528 15.6 23.1997C15.6 20.5465 17.4797 18.3997 19.8 18.3997C22.1203 18.3997 24 20.5465 24 23.1997C24 25.8528 22.1203 27.9997 19.8 27.9997ZM35.4 27.9997C33.0797 27.9997 31.2 25.8528 31.2 23.1997C31.2 20.5465 33.0797 18.3997 35.4 18.3997C37.7203 18.3997 39.6 20.5465 39.6 23.1997C39.6 25.8528 37.7203 27.9997 35.4 27.9997Z" fill="white"/>
</svg>
