<?xml version="1.0" encoding="utf-8"?>
<!-- Generator: Adobe Illustrator 27.3.1, SVG Export Plug-In . SVG Version: 6.00 Build 0)  -->
<svg version="1.1" id="Layer_1" xmlns="http://www.w3.org/2000/svg" xmlns:xlink="http://www.w3.org/1999/xlink" x="0px" y="0px"
	 viewBox="0 0 47 45" style="enable-background:new 0 0 47 45;" xml:space="preserve">
<style type="text/css">
	.st0{fill:#FFFFFF;}
</style>
<path class="st0" d="M11.7,8.1c0,1.1-0.4,2.2-1.2,2.9c-0.8,0.8-1.9,1.2-3,1.2s-2.2-0.4-3-1.2c-0.8-0.8-1.2-1.8-1.2-2.9
	c0-1.1,0.4-2.2,1.2-2.9c0.8-0.8,1.9-1.2,3-1.2c1.1,0,2.2,0.4,3,1.2C11.3,5.9,11.7,7,11.7,8.1z M11.9,15.3H3.5v26h8.4V15.3z
	 M25.1,15.3h-8.3v26H25V27.7c0-7.6,10-8.3,10,0v13.6h8.3V24.8c0-12.8-14.8-12.3-18.3-6L25.1,15.3z"/>
</svg>
