<svg width="40" height="41" viewBox="0 0 40 41" fill="none" xmlns="http://www.w3.org/2000/svg">
<path fill-rule="evenodd" clip-rule="evenodd" d="M11.7296 0.936276C13.8578 0.838201 14.5364 0.816406 19.9576 0.816406C25.3788 0.816406 26.0574 0.840017 28.1838 0.936276C30.3102 1.03254 31.7616 1.37217 33.0317 1.86436C34.3616 2.36745 35.5681 3.15388 36.566 4.17096C37.582 5.16806 38.3658 6.37403 38.8666 7.70713C39.3601 8.97848 39.6975 10.4315 39.7955 12.5564C39.8935 14.6905 39.9152 15.3697 39.9152 20.7948C39.9152 26.2216 39.8917 26.9009 39.7955 29.0313C39.6993 31.1563 39.3601 32.6093 38.8666 33.8806C38.3658 35.2139 37.5807 36.4219 36.566 37.4204C35.5681 38.4375 34.3616 39.2221 33.0317 39.7234C31.7616 40.2174 30.3102 40.5552 28.1874 40.6533C26.0574 40.7514 25.3788 40.7732 19.9576 40.7732C14.5364 40.7732 13.8578 40.7496 11.7296 40.6533C9.60687 40.557 8.15541 40.2174 6.88538 39.7234C5.55352 39.222 4.34681 38.4362 3.34925 37.4204C2.33392 36.4227 1.54819 35.2153 1.04687 33.8824C0.555185 32.6111 0.217719 31.1581 0.119746 29.0331C0.0217719 26.8991 0 26.2198 0 20.7948C0 15.3679 0.0235863 14.6887 0.119746 12.5601C0.215905 10.4315 0.555185 8.97848 1.04687 7.70713C1.54893 6.37418 2.33526 5.16681 3.35107 4.16914C4.34721 3.15297 5.5527 2.36644 6.88357 1.86436C8.1536 1.37217 9.60687 1.03435 11.7296 0.936276ZM28.0205 4.53238C25.9159 4.43613 25.2845 4.41615 19.9558 4.41615C14.6271 4.41615 13.9957 4.43613 11.8911 4.53238C9.94434 4.62138 8.8884 4.94648 8.18444 5.22073C7.25369 5.58397 6.58783 6.01442 5.88931 6.71366C5.22716 7.35851 4.71758 8.14354 4.39793 9.01117C4.12397 9.71587 3.79921 10.7729 3.7103 12.7217C3.61414 14.8285 3.59419 15.4606 3.59419 20.7948C3.59419 26.129 3.61414 26.7611 3.7103 28.8679C3.79921 30.8167 4.12397 31.8737 4.39793 32.5784C4.71726 33.4447 5.22708 34.2312 5.88931 34.8759C6.5334 35.5388 7.319 36.0492 8.18444 36.3688C8.8884 36.6431 9.94434 36.9682 11.8911 37.0572C13.9957 37.1534 14.6253 37.1734 19.9558 37.1734C25.2863 37.1734 25.9159 37.1534 28.0205 37.0572C29.9673 36.9682 31.0232 36.6431 31.7272 36.3688C32.6579 36.0056 33.3238 35.5752 34.0223 34.8759C34.6845 34.2312 35.1944 33.4447 35.5137 32.5784C35.7876 31.8737 36.1124 30.8167 36.2013 28.8679C36.2975 26.7611 36.3174 26.129 36.3174 20.7948C36.3174 15.4606 36.2975 14.8285 36.2013 12.7217C36.1124 10.7729 35.7876 9.71587 35.5137 9.01117C35.1508 8.07946 34.7208 7.4129 34.0223 6.71366C33.3781 6.05087 32.5939 5.54077 31.7272 5.22073C31.0232 4.94648 29.9673 4.62138 28.0205 4.53238ZM17.4067 26.9536C18.8303 27.5468 20.4155 27.6269 21.8916 27.1801C23.3676 26.7333 24.6429 25.7874 25.4997 24.5039C26.3564 23.2205 26.7415 21.679 26.5891 20.143C26.4367 18.6069 25.7562 17.1714 24.664 16.0817C23.9677 15.3851 23.1258 14.8518 22.1989 14.52C21.272 14.1883 20.2832 14.0664 19.3035 14.1631C18.3239 14.2598 17.3779 14.5727 16.5336 15.0794C15.6893 15.586 14.9678 16.2738 14.4208 17.0931C13.8739 17.9124 13.5153 18.8429 13.3707 19.8176C13.2262 20.7923 13.2993 21.787 13.5849 22.73C13.8704 23.673 14.3613 24.5409 15.0221 25.2713C15.683 26.0016 16.4974 26.5761 17.4067 26.9536ZM12.7039 13.5336C13.6565 12.58 14.7874 11.8236 16.032 11.3075C17.2765 10.7915 18.6105 10.5259 19.9576 10.5259C21.3048 10.5259 22.6387 10.7915 23.8833 11.3075C25.1279 11.8236 26.2587 12.58 27.2113 13.5336C28.1639 14.4871 28.9195 15.6191 29.435 16.865C29.9505 18.1109 30.2159 19.4462 30.2159 20.7948C30.2159 22.1433 29.9505 23.4787 29.435 24.7245C28.9195 25.9704 28.1639 27.1025 27.2113 28.056C25.2875 29.9818 22.6783 31.0637 19.9576 31.0637C17.237 31.0637 14.6277 29.9818 12.7039 28.056C10.7801 26.1302 9.69936 23.5183 9.69936 20.7948C9.69936 18.0713 10.7801 15.4594 12.7039 13.5336ZM32.491 12.0552C32.7271 11.8322 32.916 11.5642 33.0467 11.2669C33.1775 10.9695 33.2472 10.649 33.252 10.3242C33.2567 9.99936 33.1963 9.6769 33.0743 9.37589C32.9523 9.07487 32.7712 8.80142 32.5417 8.57172C32.3123 8.34202 32.0391 8.16074 31.7384 8.03862C31.4377 7.9165 31.1156 7.85602 30.7911 7.86075C30.4666 7.86549 30.1464 7.93535 29.8494 8.06619C29.5524 8.19703 29.2846 8.38621 29.0619 8.6225C28.6289 9.08206 28.3918 9.69248 28.401 10.3242C28.4102 10.9559 28.6649 11.5591 29.1112 12.0058C29.5575 12.4526 30.1601 12.7076 30.7911 12.7168C31.4221 12.726 32.0319 12.4887 32.491 12.0552Z" fill="white"/>
</svg>
