<svg width="47" height="44" viewBox="0 0 47 44" fill="none" xmlns="http://www.w3.org/2000/svg">
<path d="M9.79102 4.8454C9.79037 6.12983 9.27397 7.36141 8.35542 8.26919C7.43688 9.17697 6.19143 9.68659 4.89306 9.68595C3.59469 9.68531 2.34976 9.17445 1.43213 8.26576C0.514504 7.35707 -0.000648572 6.12499 6.12823e-07 4.84055C0.000649798 3.55612 0.517047 2.32454 1.43559 1.41676C2.35414 0.508983 3.59959 -0.000641612 4.89796 6.06247e-07C6.19633 0.000642825 7.44126 0.511499 8.35889 1.42019C9.27651 2.32887 9.79167 3.56096 9.79102 4.8454ZM9.93788 13.2722H0.146866V43.5892H9.93788V13.2722ZM25.4077 13.2722H15.6656V43.5892H25.3098V27.68C25.3098 18.8174 36.9856 17.9941 36.9856 27.68V43.5892H46.6542V24.3868C46.6542 9.44622 29.373 10.0032 25.3098 17.3403L25.4077 13.2722Z" fill="white"/>
</svg>
